<svg fill="none" height="68" viewBox="0 0 85 68" width="85" xmlns="http://www.w3.org/2000/svg" xmlns:xlink="http://www.w3.org/1999/xlink"><clipPath id="a"><path d="m25 24.5h8v8h-8z"/></clipPath><clipPath id="b"><path d="m52 36.5h8v8h-8z"/></clipPath><clipPath id="c"><path d="m0 40.5h8v8h-8z"/></clipPath><path d="m13.8536.646447c-.1953-.195263-.5119-.195263-.7072 0l-3.18193 3.181983c-.19527.19526-.19527.51184 0 .7071.19523.19527.51183.19527.70713 0l2.8284-2.82842 2.8284 2.82842c.1953.19527.5119.19527.7071 0 .1953-.19526.1953-.51184 0-.7071zm-.8536 63.353553c0 .2761.2239.5.5.5s.5-.2239.5-.5zm0-63v63h1v-63z" fill="#4a5568"/><g stroke="#68d391" stroke-linecap="round" stroke-width="3"><path d="m4.41964 43.9339 24.17146-16.0231"/><path d="m29.0114 27.8257 25.9622 12.9216"/><path d="m80.1638 26.549-25.1147 14.5"/></g><path d="m13.5 63.5c-.2761 0-.5.2239-.5.5s.2239.5.5.5zm63.3536.8536c.1952-.1953.1952-.5119 0-.7072l-3.182-3.1819c-.1953-.1953-.5119-.1953-.7071 0-.1953.1952-.1953.5118 0 .7071l2.8284 2.8284-2.8284 2.8284c-.1953.1953-.1953.5119 0 .7071.1952.1953.5118.1953.7071 0zm-63.3536.1464h63v-1h-63z" fill="#4a5568"/><g clip-path="url(#a)"><path d="m29 31.5c1.6569 0 3-1.3431 3-3s-1.3431-3-3-3-3 1.3431-3 3 1.3431 3 3 3z" fill="#fff" stroke="#68d391" stroke-width="2"/></g><g clip-path="url(#b)"><path d="m56 43.5c1.6569 0 3-1.3431 3-3s-1.3431-3-3-3-3 1.3431-3 3 1.3431 3 3 3z" fill="#fff" stroke="#68d391" stroke-width="2"/></g><path d="m81 29c1.6569 0 3-1.3431 3-3s-1.3431-3-3-3-3 1.3431-3 3 1.3431 3 3 3z" fill="#fff" stroke="#68d391" stroke-width="2"/><g clip-path="url(#c)"><path d="m4 47.5c1.65685 0 3-1.3431 3-3s-1.34315-3-3-3-3 1.3431-3 3 1.34315 3 3 3z" fill="#fff" stroke="#68d391" stroke-width="2"/></g></svg>