<svg fill="none" height="118" viewBox="0 0 186 118" width="186" xmlns="http://www.w3.org/2000/svg" xmlns:xlink="http://www.w3.org/1999/xlink"><linearGradient id="a" gradientUnits="userSpaceOnUse" x1="175.5" x2="175.5" y1="9" y2="37.875"><stop offset="0" stop-color="#68d391" stop-opacity=".4"/><stop offset="1" stop-color="#68d391"/></linearGradient><linearGradient id="b" gradientUnits="userSpaceOnUse" x1="175" x2="175" y1="82" y2="110.875"><stop offset="0" stop-color="#68d391"/><stop offset="1" stop-color="#68d391" stop-opacity=".4"/></linearGradient><path d="m178.752 36c-.504 0-.924-.168-1.26-.504-.336-.36-.504-.804-.504-1.332v-18.324l.648.216-7.776 9.936-.18-.468h13.104c.48 0 .876.168 1.188.504.336.312.504.708.504 1.188 0 .456-.168.84-.504 1.152-.312.312-.708.468-1.188.468h-15.588c-.432 0-.84-.168-1.224-.504-.384-.36-.576-.78-.576-1.26 0-.456.156-.864.468-1.224l11.448-14.328c.168-.24.384-.42.648-.54s.54-.18.828-.18c.528 0 .96.18 1.296.54.336.336.504.768.504 1.296v21.528c0 .528-.18.972-.54 1.332-.36.336-.792.504-1.296.504z" fill="url(#a)"/><path d="m175.296 109.36c-1.344 0-2.544-.264-3.6-.792-1.032-.528-1.908-1.248-2.628-2.16-.696-.912-1.236-1.932-1.62-3.06-.36-1.152-.54-2.328-.54-3.528 0-.936.108-2.004.324-3.204.216-1.224.576-2.484 1.08-3.78.504-1.32 1.164-2.58 1.98-3.78.84-1.2 1.872-2.28 3.096-3.24 1.248-.984 2.724-1.728 4.428-2.232.24-.072.468-.108.684-.108.48 0 .9.132 1.26.396.384.24.576.684.576 1.332 0 .432-.144.816-.432 1.152-.288.312-.672.54-1.152.684-.864.288-1.728.72-2.592 1.296s-1.668 1.26-2.412 2.052-1.38 1.68-1.908 2.664c-.504.96-.876 1.968-1.116 3.024l-.9.144c.36-.552.816-1.08 1.368-1.584.576-.528 1.248-.96 2.016-1.296.768-.36 1.644-.54 2.628-.54s1.932.216 2.844.648 1.728 1.032 2.448 1.8c.744.768 1.32 1.656 1.728 2.664.432 1.008.648 2.076.648 3.204 0 1.488-.372 2.868-1.116 4.14-.72 1.248-1.704 2.244-2.952 2.988-1.224.744-2.604 1.116-4.14 1.116zm-.036-3.348c.888 0 1.68-.204 2.376-.612.696-.432 1.248-1.02 1.656-1.764s.612-1.584.612-2.52-.192-1.776-.576-2.52-.924-1.344-1.62-1.8c-.672-.456-1.464-.684-2.376-.684-.936 0-1.764.228-2.484.684s-1.284 1.068-1.692 1.836c-.408.744-.612 1.584-.612 2.52 0 .864.204 1.68.612 2.448.408.744.96 1.332 1.656 1.764.72.432 1.536.648 2.448.648z" fill="url(#b)"/><path d="m2.268 52.28h8.46c.48 0 .876.168 1.188.504.336.312.504.708.504 1.188 0 .456-.168.84-.504 1.152-.312.312-.708.468-1.188.468h-8.46c-.48 0-.888-.156-1.224-.468-.312-.336-.468-.732-.468-1.188 0-.48.156-.876.468-1.188.336-.312.744-.468 1.224-.468zm3.78-4.68c.528 0 .96.18 1.296.54.336.336.504.768.504 1.296v16.704c0 .432.072.78.216 1.044s.336.444.576.54c.264.096.528.144.792.144s.492-.048.684-.144c.216-.096.468-.144.756-.144s.552.132.792.396.36.624.36 1.08c0 .576-.312 1.044-.936 1.404s-1.296.54-2.016.54c-.408 0-.888-.036-1.44-.108s-1.092-.252-1.62-.54c-.504-.288-.924-.744-1.26-1.368-.336-.648-.504-1.548-.504-2.7v-16.848c0-.528.168-.96.504-1.296.36-.36.792-.54 1.296-.54zm25.8747 4.176c.528 0 .96.18 1.296.54.336.336.504.768.504 1.296v15.552c0 .528-.168.972-.504 1.332-.336.336-.768.504-1.296.504-.504 0-.936-.168-1.296-.504-.336-.36-.504-.804-.504-1.332v-2.592l.756.108c0 .432-.18.912-.54 1.44-.336.528-.804 1.044-1.404 1.548-.6.48-1.308.888-2.124 1.224-.816.312-1.692.468-2.628.468-1.656 0-3.144-.42-4.464-1.26-1.32-.864-2.364-2.04-3.132-3.528s-1.152-3.18-1.152-5.076c0-1.944.384-3.648 1.152-5.112.768-1.488 1.8-2.652 3.096-3.492 1.32-.84 2.784-1.26 4.392-1.26 1.032 0 1.98.168 2.844.504.888.336 1.656.768 2.304 1.296s1.14 1.092 1.476 1.692c.36.576.54 1.128.54 1.656l-1.116.108v-3.276c0-.504.168-.936.504-1.296.36-.36.792-.54 1.296-.54zm-7.344 16.272c1.128 0 2.124-.288 2.988-.864s1.536-1.356 2.016-2.34c.48-1.008.72-2.124.72-3.348 0-1.248-.24-2.364-.72-3.348s-1.152-1.764-2.016-2.34-1.86-.864-2.988-.864c-1.104 0-2.088.288-2.952.864-.84.576-1.512 1.356-2.016 2.34-.48.984-.72 2.1-.72 3.348 0 1.224.24 2.34.72 3.348.504.984 1.176 1.764 2.016 2.34.864.576 1.848.864 2.952.864zm16.2754 2.952c-.504 0-.936-.168-1.296-.504-.336-.36-.504-.804-.504-1.332v-22.968c0-.528.168-.96.504-1.296.36-.36.792-.54 1.296-.54.528 0 .96.18 1.296.54.336.336.504.768.504 1.296v22.968c0 .528-.168.972-.504 1.332-.336.336-.768.504-1.296.504zm11.736-19.008c.456 0 .852.192 1.188.576s.504.768.504 1.152c0 .48-.228.924-.684 1.332l-11.268 10.08-.144-4.14 9.072-8.424c.384-.384.828-.576 1.332-.576zm.432 18.972c-.504 0-.936-.204-1.296-.612l-7.2-7.596 2.736-2.52 7.02 7.596c.384.408.576.864.576 1.368 0 .528-.216.96-.648 1.296-.408.312-.804.468-1.188.468zm19.7544-18.9c.504 0 .924.18 1.26.54.36.336.54.768.54 1.296v9.468c0 2.496-.696 4.452-2.088 5.868-1.392 1.392-3.36 2.088-5.904 2.088-2.52 0-4.476-.696-5.868-2.088-1.368-1.416-2.052-3.372-2.052-5.868v-9.468c0-.528.168-.96.504-1.296.336-.36.768-.54 1.296-.54.504 0 .924.18 1.26.54.36.336.54.768.54 1.296v9.468c0 1.56.36 2.724 1.08 3.492.744.768 1.824 1.152 3.24 1.152 1.44 0 2.532-.384 3.276-1.152s1.116-1.932 1.116-3.492v-9.468c0-.528.168-.96.504-1.296.336-.36.768-.54 1.296-.54zm16.31-.324c1.776 0 3.144.444 4.104 1.332.96.864 1.596 2.04 1.908 3.528l-.576-.18.252-.576c.312-.624.78-1.248 1.404-1.872.648-.648 1.416-1.176 2.304-1.584.888-.432 1.8365-.648 2.8445-.648 1.656 0 2.94.36 3.852 1.08.912.696 1.548 1.644 1.908 2.844.36 1.176.54 2.496.54 3.96v9.54c0 .528-.168.972-.504 1.332-.336.336-.768.504-1.296.504-.504 0-.936-.168-1.296-.504-.336-.36-.504-.804-.504-1.332v-9.504c0-.84-.12-1.608-.36-2.304-.216-.696-.612-1.248-1.188-1.656-.552-.432-1.32-.648-2.304-.648-.9365 0-1.7765.216-2.5205.648-.72.408-1.284.96-1.692 1.656s-.612 1.464-.612 2.304v9.504c0 .528-.168.972-.504 1.332-.336.336-.768.504-1.296.504s-.96-.168-1.296-.504c-.336-.36-.504-.804-.504-1.332v-9.54c0-.84-.12-1.608-.36-2.304-.216-.696-.6-1.248-1.152-1.656s-1.32-.612-2.304-.612c-.936 0-1.764.204-2.484.612s-1.284.96-1.692 1.656c-.384.696-.576 1.464-.576 2.304v9.54c0 .528-.18.972-.54 1.332-.336.336-.756.504-1.26.504-.528 0-.96-.168-1.296-.504-.336-.36-.504-.804-.504-1.332v-15.264c0-.528.168-.96.504-1.296.336-.36.768-.54 1.296-.54.504 0 .924.18 1.26.54.36.336.54.768.54 1.296v2.124l-.684.396c.168-.528.444-1.068.828-1.62s.864-1.056 1.44-1.512c.6-.456 1.26-.828 1.98-1.116s1.5-.432 2.34-.432zm33.0825 0c1.776 0 3.144.444 4.104 1.332.96.864 1.596 2.04 1.908 3.528l-.576-.18.252-.576c.312-.624.78-1.248 1.404-1.872.648-.648 1.416-1.176 2.304-1.584.888-.432 1.836-.648 2.844-.648 1.656 0 2.94.36 3.852 1.08.912.696 1.548 1.644 1.908 2.844.36 1.176.54 2.496.54 3.96v9.54c0 .528-.168.972-.504 1.332-.336.336-.768.504-1.296.504-.504 0-.936-.168-1.296-.504-.336-.36-.504-.804-.504-1.332v-9.504c0-.84-.12-1.608-.36-2.304-.216-.696-.612-1.248-1.188-1.656-.552-.432-1.32-.648-2.304-.648-.936 0-1.776.216-2.52.648-.72.408-1.284.96-1.692 1.656s-.612 1.464-.612 2.304v9.504c0 .528-.168.972-.504 1.332-.336.336-.768.504-1.296.504s-.96-.168-1.296-.504c-.336-.36-.504-.804-.504-1.332v-9.54c0-.84-.12-1.608-.36-2.304-.216-.696-.6-1.248-1.152-1.656s-1.32-.612-2.304-.612c-.936 0-1.764.204-2.484.612s-1.284.96-1.692 1.656c-.384.696-.576 1.464-.576 2.304v9.54c0 .528-.18.972-.54 1.332-.336.336-.756.504-1.26.504-.528 0-.96-.168-1.296-.504-.336-.36-.504-.804-.504-1.332v-15.264c0-.528.168-.96.504-1.296.336-.36.768-.54 1.296-.54.504 0 .924.18 1.26.54.36.336.54.768.54 1.296v2.124l-.684.396c.168-.528.444-1.068.828-1.62s.864-1.056 1.44-1.512c.6-.456 1.26-.828 1.98-1.116s1.5-.432 2.34-.432zm39.094.036c.528 0 .96.18 1.296.54.336.336.504.768.504 1.296v15.552c0 .528-.168.972-.504 1.332-.336.336-.768.504-1.296.504-.504 0-.936-.168-1.296-.504-.336-.36-.504-.804-.504-1.332v-2.592l.756.108c0 .432-.18.912-.54 1.44-.336.528-.804 1.044-1.404 1.548-.6.48-1.308.888-2.124 1.224-.816.312-1.692.468-2.628.468-1.656 0-3.144-.42-4.464-1.26-1.32-.864-2.364-2.04-3.132-3.528s-1.152-3.18-1.152-5.076c0-1.944.384-3.648 1.152-5.112.768-1.488 1.8-2.652 3.096-3.492 1.32-.84 2.784-1.26 4.392-1.26 1.032 0 1.98.168 2.844.504.888.336 1.656.768 2.304 1.296s1.14 1.092 1.476 1.692c.36.576.54 1.128.54 1.656l-1.116.108v-3.276c0-.504.168-.936.504-1.296.36-.36.792-.54 1.296-.54zm-7.344 16.272c1.128 0 2.124-.288 2.988-.864s1.536-1.356 2.016-2.34c.48-1.008.72-2.124.72-3.348 0-1.248-.24-2.364-.72-3.348s-1.152-1.764-2.016-2.34-1.86-.864-2.988-.864c-1.104 0-2.088.288-2.952.864-.84.576-1.512 1.356-2.016 2.34-.48.984-.72 2.1-.72 3.348 0 1.224.24 2.34.72 3.348.504.984 1.176 1.764 2.016 2.34.864.576 1.848.864 2.952.864z" fill="#2d3748"/><path d="m174.19 71.252c-.936 0-1.908-.144-2.916-.432-.984-.288-1.824-.72-2.52-1.296-.264-.216-.468-.492-.612-.828s-.216-.66-.216-.972c0-.336.144-.66.432-.972.312-.336.732-.504 1.26-.504.384 0 .828.192 1.332.576.48.312.984.576 1.512.792.552.216 1.116.324 1.692.324 1.248 0 2.328-.228 3.24-.684s1.608-1.092 2.088-1.908c.504-.84.756-1.812.756-2.916 0-1.032-.228-1.908-.684-2.628-.456-.744-1.08-1.32-1.872-1.728-.768-.408-1.632-.612-2.592-.612-.792 0-1.488.132-2.088.396-.6.24-1.14.492-1.62.756-.48.24-.924.36-1.332.36-.624 0-1.092-.132-1.404-.396-.312-.288-.516-.624-.612-1.008-.072-.408-.084-.78-.036-1.116l1.26-9.036c.072-.408.264-.744.576-1.008.336-.288.744-.432 1.224-.432h10.548c.48 0 .876.168 1.188.504.336.312.504.708.504 1.188s-.168.876-.504 1.188c-.312.312-.708.468-1.188.468h-9.648l.396-.324-1.152 7.74-.54-1.08c.216-.24.576-.468 1.08-.684.528-.24 1.116-.432 1.764-.576.672-.168 1.344-.252 2.016-.252 1.584 0 3 .36 4.248 1.08 1.272.696 2.268 1.668 2.988 2.916s1.08 2.664 1.08 4.248c0 1.776-.396 3.336-1.188 4.68-.792 1.32-1.908 2.352-3.348 3.096-1.44.72-3.144 1.08-5.112 1.08z" fill="#68d391"/></svg>