<svg fill="none" height="64" viewBox="0 0 164 64" width="164" xmlns="http://www.w3.org/2000/svg"><path d="m80.0587 29.9414c-1.0922-1.0917-2.5732-1.7049-4.1174-1.7049s-3.0252.6132-4.1173 1.7049l-4.1187 4.1173c-1.0921 1.0922-1.7057 2.5735-1.7057 4.118 0 1.5446.6136 3.0259 1.7057 4.118 1.0922 1.0922 2.5735 1.7058 4.118 1.7058 1.5446 0 3.0259-.6136 4.118-1.7058l2.0587-2.0586" stroke="#4a5568" stroke-linecap="round" stroke-linejoin="round" stroke-width="3"/><path d="m75.9413 34.0587c1.0922 1.0917 2.5732 1.705 4.1174 1.705s3.0252-.6133 4.1173-1.705l4.1187-4.1173c1.0921-1.0922 1.7057-2.5735 1.7057-4.118 0-1.5446-.6136-3.0259-1.7057-4.118-1.0922-1.0922-2.5735-1.7058-4.118-1.7058-1.5446 0-3.0259.6136-4.118 1.7058l-2.0587 2.0586" stroke="#4a5568" stroke-linecap="round" stroke-linejoin="round" stroke-width="3"/><path d="m63.048 13.1653c-2.2267.9867-4.6187 1.6533-7.1333 1.9547 2.5946-1.5526 4.5358-3.9961 5.4613-6.87469-2.4377 1.44798-5.1057 2.46719-7.888 3.01329-1.871-1.99764-4.3492-3.32175-7.0498-3.76669s-5.4726.01418-7.8856 1.30608c-2.4129 1.29191-4.3319 3.34431-5.4589 5.83851-1.1269 2.4943-1.3989 5.2908-.7737 7.9555-4.9395-.248-9.7717-1.5319-14.1829-3.7683s-8.30285-5.3753-11.42243-9.21305c-1.06666 1.83995-1.68 3.97335-1.68 6.24535-.00119 2.0453.50249 4.0593 1.46635 5.8633.96385 1.8039 2.35808 3.3421 4.05898 4.478-1.97259-.0628-3.90167-.5958-5.62666-1.5547v.16c-.0002 2.8687.99209 5.6491 2.80849 7.8694s4.34507 3.7438 7.15687 4.312c-1.8299.4952-3.7485.5682-5.61069.2133.79329 2.4683 2.33869 4.6267 4.41969 6.1731 2.0809 1.5464 4.5934 2.4034 7.1856 2.4509-4.4004 3.4544-9.8349 5.3282-15.42929 5.32-.99099.0003-1.98113-.0576-2.96534-.1733 5.67861 3.6511 12.28893 5.5888 19.04003 5.5813 22.8533 0 35.3466-18.928 35.3466-35.344 0-.5333-.0133-1.072-.0373-1.6053 2.4301-1.7574 4.5278-3.9336 6.1947-6.4267z" fill="#1da1f2"/><path d="m152 0h-40c-6.627 0-12 5.37258-12 12v40c0 6.6274 5.373 12 12 12h40c6.627 0 12-5.3726 12-12v-40c0-6.62742-5.373-12-12-12z" fill="#68d391"/><path d="m144.474 23.428-.001.0015-.003.0029-.001.0011-12.324 12.6502-.09.0926-.09-.0926-12.405-12.74-.001-.0004c-1.139-1.1804-1.778-2.7555-1.784-4.3965-.006-1.6409.621-3.2208 1.751-4.4097l.001-.0007c.538-.5579 1.184-1.001 1.898-1.3025s1.482-.4551 2.257-.4516c.775.0034 1.541.1639 2.252.4718.711.3077 1.353.7564 1.886 1.3188l.001.0007 1.368 1.4058c.363.3738.798.6709 1.278.8738.48.2028.996.3073 1.517.3073.522 0 1.037-.1045 1.518-.3073.48-.2028.914-.4999 1.278-.8736-35.5073-18.44418-6.959 47.3199 9.694 7.4484zm0 0c2.335-2.4155 2.335-6.3671-.036-8.8026-.534-.564-1.177-1.0138-1.889-1.3224-.713-.3087-1.481-.4697-2.257-.4731-.777-.0035-1.546.1506-2.262.4529-.715.3023-1.362.7466-1.901 1.306l-1.349 1.3908c-35.5073-18.44418-6.959 47.3199 9.694 7.4484zm-27.65-11.5302c1.638-1.6947 3.847-2.72019 6.197-2.87679 2.348-.15645 4.67.565 6.517 2.02439l.005.0043.006.0047c.345.2701.672.5626.978.8758l1.369 1.4108.09.0929.091-.0928 1.353-1.3909c.891-.9203 1.958-1.6515 3.137-2.14964 1.18-.49815 2.448-.75315 3.728-.74985 1.28.00335 2.546.265 3.723.7693 1.177.50429 2.24 1.24089 3.126 2.16579l.001.0004c1.824 1.8856 2.848 4.4056 2.855 7.0305s-1.002 5.1504-2.815 7.0463l-14.149 14.5215c-.538.554-1.416.5541-1.954.0001l-14.226-14.6067c-3.795-3.8944-3.81-10.2025-.032-14.0801z" fill="#fff"/><path d="m132 55.5c2.485 0 4.5-2.0145 4.5-4.5 0-2.4853-2.015-4.5-4.5-4.5s-4.5 2.0147-4.5 4.5c0 2.4855 2.015 4.5 4.5 4.5z" stroke="#fff" stroke-width="3"/></svg>