<svg fill="none" height="9" viewBox="0 0 10 9" width="10" xmlns="http://www.w3.org/2000/svg"><path d="m1.20597 1.13986c.40948-.423676.9617-.68005 1.5493-.719202.587-.039112 1.1676.141246 1.62933.506098l.00107.001065.00151.001183c.08626.067508.16797.140656.24459.218956l.34227.35269.02255.02323.02257-.0232.33832-.34773c.22272-.230064.48953-.412879.7844-.537413.29486-.124534.61179-.188287.93182-.187452.32004.000836.63662.066244.93083.192316.29422.126073.56003.31022.78153.541439.4561.4714.71208 1.10151.71393 1.75775.00186.65621-.2504 1.28759-.70379 1.76156l-3.53716 3.63038c-.13465.13848-.35392.13851-.48858.00003l-3.55643-3.65169c-.948766-.97361-.95261-2.55063-.00806-3.52001z" fill="#68d391" stroke="#68d391" stroke-width=".5"/></svg>