<svg fill="none" height="192" viewBox="0 0 912 192" width="912" xmlns="http://www.w3.org/2000/svg" xmlns:xlink="http://www.w3.org/1999/xlink"><clipPath id="a"><path d="m48.5 144h48v48h-48z"/></clipPath><path d="m199.616 142.656c0 2.112-.672 3.888-2.016 5.328-1.344 1.344-3.072 2.016-5.184 2.016-2.016 0-3.744-.672-5.184-2.016-1.344-1.44-2.016-3.216-2.016-5.328v-61.632c0-2.112.672-3.84 2.016-5.184 1.44-1.44 3.168-2.16 5.184-2.16 2.112 0 3.84.72 5.184 2.16 1.344 1.344 2.016 3.072 2.016 5.184zm-7.344-78.48c-2.784 0-4.8-.48-6.048-1.44-1.248-1.056-1.872-2.784-1.872-5.184v-2.304c0-2.4.672-4.08 2.016-5.04s3.36-1.44 6.048-1.44c2.88 0 4.944.528 6.192 1.584 1.248.96 1.872 2.592 1.872 4.896v2.304c0 2.496-.672 4.224-2.016 5.184-1.248.96-3.312 1.44-6.192 1.44zm64.73 8.784c7.104 0 12.576 1.776 16.416 5.328 3.84 3.456 6.384 8.16 7.632 14.112l-2.304-.72 1.008-2.304c1.248-2.496 3.12-4.992 5.616-7.488 2.592-2.592 5.664-4.704 9.216-6.336 3.552-1.728 7.344-2.592 11.376-2.592 6.624 0 11.76 1.44 15.408 4.32 3.648 2.784 6.192 6.576 7.632 11.376 1.44 4.704 2.16 9.984 2.16 15.84v38.16c0 2.112-.672 3.888-2.016 5.328-1.344 1.344-3.072 2.016-5.184 2.016-2.016 0-3.744-.672-5.184-2.016-1.344-1.44-2.016-3.216-2.016-5.328v-38.016c0-3.36-.48-6.432-1.44-9.216-.864-2.784-2.448-4.992-4.752-6.624-2.208-1.728-5.28-2.592-9.216-2.592-3.744 0-7.104.864-10.08 2.592-2.88 1.632-5.136 3.84-6.768 6.624s-2.448 5.856-2.448 9.216v38.016c0 2.112-.672 3.888-2.016 5.328-1.344 1.344-3.072 2.016-5.184 2.016s-3.84-.672-5.184-2.016c-1.344-1.44-2.016-3.216-2.016-5.328v-38.16c0-3.36-.48-6.432-1.44-9.216-.864-2.784-2.4-4.992-4.608-6.624s-5.28-2.448-9.216-2.448c-3.744 0-7.056.816-9.936 2.448s-5.136 3.84-6.768 6.624c-1.536 2.784-2.304 5.856-2.304 9.216v38.16c0 2.112-.72 3.888-2.16 5.328-1.344 1.344-3.024 2.016-5.04 2.016-2.112 0-3.84-.672-5.184-2.016-1.344-1.44-2.016-3.216-2.016-5.328v-61.056c0-2.112.672-3.84 2.016-5.184 1.344-1.44 3.072-2.16 5.184-2.16 2.016 0 3.696.72 5.04 2.16 1.44 1.344 2.16 3.072 2.16 5.184v8.496l-2.736 1.584c.672-2.112 1.776-4.272 3.312-6.48s3.456-4.224 5.76-6.048c2.4-1.824 5.04-3.312 7.92-4.464s6-1.728 9.36-1.728zm156.376.144c2.112 0 3.84.72 5.184 2.16 1.344 1.344 2.016 3.072 2.016 5.184v62.208c0 2.112-.672 3.888-2.016 5.328-1.344 1.344-3.072 2.016-5.184 2.016-2.016 0-3.744-.672-5.184-2.016-1.344-1.44-2.016-3.216-2.016-5.328v-10.368l3.024.432c0 1.728-.72 3.648-2.16 5.76-1.344 2.112-3.216 4.176-5.616 6.192-2.4 1.92-5.232 3.552-8.496 4.896-3.264 1.248-6.768 1.872-10.512 1.872-6.624 0-12.576-1.68-17.856-5.04-5.28-3.456-9.456-8.16-12.528-14.112s-4.608-12.72-4.608-20.304c0-7.776 1.536-14.592 4.608-20.448 3.072-5.952 7.2-10.608 12.384-13.968 5.28-3.36 11.136-5.04 17.568-5.04 4.128 0 7.92.672 11.376 2.016 3.552 1.344 6.624 3.072 9.216 5.184s4.56 4.368 5.904 6.768c1.44 2.304 2.16 4.512 2.16 6.624l-4.464.432v-13.104c0-2.016.672-3.744 2.016-5.184 1.44-1.44 3.168-2.16 5.184-2.16zm-29.376 65.088c4.512 0 8.496-1.152 11.952-3.456s6.144-5.424 8.064-9.36c1.92-4.032 2.88-8.496 2.88-13.392 0-4.992-.96-9.456-2.88-13.392s-4.608-7.056-8.064-9.36-7.44-3.456-11.952-3.456c-4.416 0-8.352 1.152-11.808 3.456-3.36 2.304-6.048 5.424-8.064 9.36-1.92 3.936-2.88 8.4-2.88 13.392 0 4.896.96 9.36 2.88 13.392 2.016 3.936 4.704 7.056 8.064 9.36 3.456 2.304 7.392 3.456 11.808 3.456zm70.286 4.464c0 2.112-.672 3.888-2.016 5.328-1.344 1.344-3.072 2.016-5.184 2.016-2.016 0-3.744-.672-5.184-2.016-1.344-1.44-2.016-3.216-2.016-5.328v-61.632c0-2.112.672-3.84 2.016-5.184 1.44-1.44 3.168-2.16 5.184-2.16 2.112 0 3.84.72 5.184 2.16 1.344 1.344 2.016 3.072 2.016 5.184zm-7.344-78.48c-2.784 0-4.8-.48-6.048-1.44-1.248-1.056-1.872-2.784-1.872-5.184v-2.304c0-2.4.672-4.08 2.016-5.04s3.36-1.44 6.048-1.44c2.88 0 4.944.528 6.192 1.584 1.248.96 1.872 2.592 1.872 4.896v2.304c0 2.496-.672 4.224-2.016 5.184-1.248.96-3.312 1.44-6.192 1.44zm35.066 85.824c-2.016 0-3.744-.672-5.184-2.016-1.344-1.44-2.016-3.216-2.016-5.328v-91.872c0-2.112.672-3.84 2.016-5.184 1.44-1.44 3.168-2.16 5.184-2.16 2.112 0 3.84.72 5.184 2.16 1.344 1.344 2.016 3.072 2.016 5.184v91.872c0 2.112-.672 3.888-2.016 5.328-1.344 1.344-3.072 2.016-5.184 2.016zm46.944-76.032c1.824 0 3.408.768 4.752 2.304s2.016 3.072 2.016 4.608c0 1.92-.912 3.696-2.736 5.328l-45.072 40.32-.576-16.56 36.288-33.696c1.536-1.536 3.312-2.304 5.328-2.304zm1.728 75.888c-2.016 0-3.744-.816-5.184-2.448l-28.8-30.384 10.944-10.08 28.08 30.384c1.536 1.632 2.304 3.456 2.304 5.472 0 2.112-.864 3.84-2.592 5.184-1.632 1.248-3.216 1.872-4.752 1.872zm79.018-75.6c2.016 0 3.696.72 5.04 2.16 1.44 1.344 2.16 3.072 2.16 5.184v37.872c0 9.984-2.784 17.808-8.352 23.472-5.568 5.568-13.44 8.352-23.616 8.352-10.08 0-17.904-2.784-23.472-8.352-5.472-5.664-8.208-13.488-8.208-23.472v-37.872c0-2.112.672-3.84 2.016-5.184 1.344-1.44 3.072-2.16 5.184-2.16 2.016 0 3.696.72 5.04 2.16 1.44 1.344 2.16 3.072 2.16 5.184v37.872c0 6.24 1.44 10.896 4.32 13.968 2.976 3.072 7.296 4.608 12.96 4.608 5.76 0 10.128-1.536 13.104-4.608s4.464-7.728 4.464-13.968v-37.872c0-2.112.672-3.84 2.016-5.184 1.344-1.44 3.072-2.16 5.184-2.16zm26.216.864h33.84c1.92 0 3.504.672 4.752 2.016 1.344 1.248 2.016 2.832 2.016 4.752 0 1.824-.672 3.36-2.016 4.608-1.248 1.248-2.832 1.872-4.752 1.872h-33.84c-1.92 0-3.552-.624-4.896-1.872-1.248-1.344-1.872-2.928-1.872-4.752 0-1.92.624-3.504 1.872-4.752 1.344-1.248 2.976-1.872 4.896-1.872zm15.12-18.72c2.112 0 3.84.72 5.184 2.16 1.344 1.344 2.016 3.072 2.016 5.184v66.816c0 1.728.288 3.12.864 4.176s1.344 1.776 2.304 2.16c1.056.384 2.112.576 3.168.576s1.968-.192 2.736-.576c.864-.384 1.872-.576 3.024-.576s2.208.528 3.168 1.584 1.44 2.496 1.44 4.32c0 2.304-1.248 4.176-3.744 5.616s-5.184 2.16-8.064 2.16c-1.632 0-3.552-.144-5.76-.432s-4.368-1.008-6.48-2.16c-2.016-1.152-3.696-2.976-5.04-5.472-1.344-2.592-2.016-6.192-2.016-10.8v-67.392c0-2.112.672-3.84 2.016-5.184 1.44-1.44 3.168-2.16 5.184-2.16zm39.783 81.792c-.864-1.344-1.248-2.88-1.152-4.608.096-1.824 1.104-3.36 3.024-4.608 1.344-.864 2.736-1.2 4.176-1.008 1.536.096 2.976.816 4.32 2.16 2.688 2.976 5.664 5.328 8.928 7.056 3.36 1.728 7.392 2.592 12.096 2.592 1.92-.096 3.888-.384 5.904-.864 2.016-.576 3.744-1.536 5.184-2.88 1.44-1.44 2.16-3.504 2.16-6.192 0-2.4-.768-4.32-2.304-5.76s-3.552-2.592-6.048-3.456c-2.496-.96-5.184-1.824-8.064-2.592-3.072-.864-6.192-1.824-9.36-2.88-3.072-1.056-5.856-2.4-8.352-4.032-2.496-1.728-4.56-3.936-6.192-6.624-1.536-2.688-2.304-6-2.304-9.936 0-4.512 1.248-8.4 3.744-11.664 2.592-3.264 5.904-5.808 9.936-7.632 4.128-1.824 8.592-2.736 13.392-2.736 2.784 0 5.712.384 8.784 1.152 3.072.672 6.048 1.776 8.928 3.312s5.376 3.552 7.488 6.048c.96 1.248 1.488 2.736 1.584 4.464.192 1.728-.576 3.264-2.304 4.608-1.152.96-2.544 1.392-4.176 1.296s-2.976-.624-4.032-1.584c-1.824-2.304-4.176-4.08-7.056-5.328-2.88-1.344-6.144-2.016-9.792-2.016-1.824 0-3.744.288-5.76.864-1.92.48-3.552 1.392-4.896 2.736s-2.016 3.312-2.016 5.904c0 2.4.768 4.32 2.304 5.76 1.632 1.44 3.744 2.64 6.336 3.6s5.424 1.824 8.496 2.592c2.976.768 5.904 1.68 8.784 2.736 2.976 1.056 5.616 2.448 7.92 4.176 2.4 1.632 4.32 3.792 5.76 6.48 1.536 2.592 2.304 5.904 2.304 9.936 0 4.704-1.392 8.736-4.176 12.096-2.688 3.264-6.144 5.76-10.368 7.488-4.128 1.728-8.496 2.592-13.104 2.592-5.472 0-10.944-.96-16.416-2.88-5.376-2.016-9.936-5.472-13.68-10.368zm129.678-63.936c2.016 0 3.696.72 5.04 2.16 1.44 1.344 2.16 3.072 2.16 5.184v37.872c0 9.984-2.784 17.808-8.352 23.472-5.568 5.568-13.44 8.352-23.616 8.352-10.08 0-17.904-2.784-23.472-8.352-5.472-5.664-8.208-13.488-8.208-23.472v-37.872c0-2.112.672-3.84 2.016-5.184 1.344-1.44 3.072-2.16 5.184-2.16 2.016 0 3.696.72 5.04 2.16 1.44 1.344 2.16 3.072 2.16 5.184v37.872c0 6.24 1.44 10.896 4.32 13.968 2.976 3.072 7.296 4.608 12.96 4.608 5.76 0 10.128-1.536 13.104-4.608s4.464-7.728 4.464-13.968v-37.872c0-2.112.672-3.84 2.016-5.184 1.344-1.44 3.072-2.16 5.184-2.16zm41.768 29.232c0-2.016.672-3.744 2.016-5.184 1.44-1.44 3.168-2.16 5.184-2.16 4.128-.096 7.824-.864 11.088-2.304s5.856-3.6 7.776-6.48 2.88-6.48 2.88-10.8c0-3.744-.864-6.96-2.592-9.648-1.632-2.784-3.888-4.944-6.768-6.48-2.88-1.632-6.144-2.448-9.792-2.448-3.168 0-6.096.624-8.784 1.872s-5.088 2.88-7.2 4.896c-1.248 1.152-2.784 2.016-4.608 2.592-1.728.48-3.504.048-5.328-1.296-1.92-1.344-2.976-3.024-3.168-5.04s.528-3.888 2.16-5.616c3.264-3.648 7.248-6.528 11.952-8.64s9.696-3.168 14.976-3.168c6.24 0 11.904 1.44 16.992 4.32s9.12 6.768 12.096 11.664 4.464 10.56 4.464 16.992c0 4.416-.72 8.448-2.16 12.096s-3.504 6.816-6.192 9.504-5.808 4.848-9.36 6.48c-3.456 1.632-7.248 2.688-11.376 3.168-.192.096-.288.144-.288.144h.432v8.64c0 2.016-.72 3.744-2.16 5.184-1.344 1.344-3.024 2.016-5.04 2.016-2.112 0-3.84-.672-5.184-2.016-1.344-1.44-2.016-3.168-2.016-5.184zm6.768 46.512c-2.4 0-4.272-.672-5.616-2.016-1.248-1.344-1.872-3.216-1.872-5.616v-2.592c0-2.496.624-4.368 1.872-5.616 1.344-1.344 3.216-2.016 5.616-2.016h1.44c2.496 0 4.368.672 5.616 2.016 1.248 1.248 1.872 3.12 1.872 5.616v2.592c0 2.4-.624 4.272-1.872 5.616s-3.12 2.016-5.616 2.016z" fill="#000"/><path d="m122.049 58.261-.005.0058-.012.0116-.004.0042-48.9519 50.2054-.3582.368-.358-.368-49.2757-50.5618-.0016-.0016c-4.5237-4.6846-7.0628-10.9358-7.0871-17.4484-.0244-6.5124 2.468-12.7826 6.9565-17.5008l.0026-.0028c2.1384-2.2144 4.7032-3.9728 7.5396-5.1693 2.8362-1.1965 5.8854-1.8063 8.9636-1.7925 3.0784.0137 6.122.6507 8.9474 1.8725 2.8246 1.2214 5.3726 3.0019 7.4908 5.2341l.0024.0026 5.4348 5.5794c1.4442 1.4836 3.1709 2.6626 5.0781 3.4678 1.9074.805 3.9566 1.2198 6.0268 1.2198s4.1194-.4148 6.0266-1.2198 3.6336-1.984 5.0776-3.4672c-141.0423-73.2-27.644 187.8 38.5067 29.561zm0 0c9.276-9.5866 9.274-25.2696-.142-34.9352-2.122-2.2384-4.674-4.0237-7.505-5.2485-2.831-1.2252-5.881-1.8639-8.966-1.8777-3.084-.0137-6.1401.5978-8.9821 1.7977-2.8418 1.1998-5.411 2.9631-7.5528 5.1833l-5.3588 5.5194c-141.0423-73.2-27.644 187.8 38.5067 29.561zm-109.8319-45.7603.0014-.0015c6.5062-6.7258 15.2789-10.79428 24.6153-11.41582 9.3268-.620887 18.5518 2.24228 25.8882 8.0343l.017.0169.024.01878c1.3706 1.07174 2.6687 2.23284 3.8861 3.47594l5.4384 5.5989.3582.3688.3586-.3683 5.3756-5.5203c3.5388-3.65216 7.7781-6.55434 12.4633-8.53132 4.685-1.97696 9.7208-2.98905 14.8058-2.97578 5.085.01326 10.115 1.05161 14.79 3.053 4.674 2.0014 8.898 4.92474 12.417 8.5954l.002.0018c7.247 7.4833 11.312 17.4845 11.342 27.9023.029 10.4174-3.979 20.4406-11.183 27.9648l-56.2013 57.6324c-2.1394 2.198-5.6234 2.199-7.763 0l-56.5075-57.9702c-15.07489-15.456-15.13597-40.4912-.1281-55.8801z" fill="#68d391"/><path d="m122.049 58.261-.005.0058-.012.0116-.004.0042-48.9519 50.2054-.3582.368-.358-.368-49.2757-50.5618-.0016-.0016c-4.5237-4.6846-7.0628-10.9358-7.0871-17.4484-.0244-6.5124 2.468-12.7826 6.9565-17.5008l.0026-.0028c2.1384-2.2144 4.7032-3.9728 7.5396-5.1693 2.8362-1.1965 5.8854-1.8063 8.9636-1.7925 3.0784.0137 6.122.6507 8.9474 1.8725 2.8246 1.2214 5.3726 3.0019 7.4908 5.2341l.0024.0026 5.4348 5.5794c1.4442 1.4836 3.1709 2.6626 5.0781 3.4678 1.9074.805 3.9566 1.2198 6.0268 1.2198s4.1194-.4148 6.0266-1.2198 3.6336-1.984 5.0776-3.4672m38.5067 29.561c-66.1507 158.239-179.549-102.761-38.5067-29.561m38.5067 29.561c9.276-9.5866 9.274-25.2696-.142-34.9352-2.122-2.2384-4.674-4.0237-7.505-5.2485-2.831-1.2252-5.881-1.8639-8.966-1.8777-3.084-.0137-6.1401.5978-8.9821 1.7977-2.8418 1.1998-5.411 2.9631-7.5528 5.1833l-5.3588 5.5194m-71.3252-16.1993.0014-.0015c6.5062-6.7258 15.2789-10.79428 24.6153-11.41582 9.3268-.620887 18.5518 2.24228 25.8882 8.0343l.017.0169.024.01878c1.3706 1.07174 2.6687 2.23284 3.8861 3.47594l5.4384 5.5989.3582.3688.3586-.3683 5.3756-5.5203c3.5388-3.65216 7.7781-6.55434 12.4633-8.53132 4.685-1.97696 9.7208-2.98905 14.8058-2.97578 5.085.01326 10.115 1.05161 14.79 3.053 4.674 2.0014 8.898 4.92474 12.417 8.5954l.002.0018c7.247 7.4833 11.312 17.4845 11.342 27.9023.029 10.4174-3.979 20.4406-11.183 27.9648l-56.2013 57.6324c-2.1394 2.198-5.6234 2.199-7.763 0l-56.5075-57.9702c-15.07489-15.456-15.13597-40.4912-.1281-55.8801z" stroke="#68d391" stroke-width=".5"/><g clip-path="url(#a)"><path d="m72.5 186c9.9411 0 18-8.059 18-18s-8.0589-18-18-18c-9.9412 0-18 8.059-18 18s8.0588 18 18 18z" stroke="#68d391" stroke-width="12"/></g></svg>